<mxfile host="app.diagrams.net" modified="2023-06-19T03:40:32.013Z" agent="Mozilla/5.0 (Windows NT 10.0; Win64; x64) AppleWebKit/537.36 (KHTML, like Gecko) Chrome/114.0.0.0 Safari/537.36 Edg/114.0.1823.51" etag="bHQMyz9TEjFoy6ymLTBE" version="21.5.0" type="device">
  <diagram name="Page-1" id="NiEVfzb0KlGkai1xbixx">
    <mxGraphModel dx="908" dy="468" grid="1" gridSize="10" guides="1" tooltips="1" connect="1" arrows="1" fold="1" page="1" pageScale="1" pageWidth="850" pageHeight="1100" math="0" shadow="0">
      <root>
        <mxCell id="0" />
        <mxCell id="1" parent="0" />
        <mxCell id="YfRe9Kezcm8jlTOAHe0u-1" value="ESP32-WROOM-32E" style="rounded=0;whiteSpace=wrap;html=1;" parent="1" vertex="1">
          <mxGeometry x="662.5" y="190" width="120" height="60" as="geometry" />
        </mxCell>
        <mxCell id="YfRe9Kezcm8jlTOAHe0u-2" value="DHT11" style="rounded=0;whiteSpace=wrap;html=1;" parent="1" vertex="1">
          <mxGeometry x="430" y="330" width="120" height="60" as="geometry" />
        </mxCell>
        <mxCell id="YfRe9Kezcm8jlTOAHe0u-3" value="DS3231" style="rounded=0;whiteSpace=wrap;html=1;" parent="1" vertex="1">
          <mxGeometry x="430" y="450" width="120" height="60" as="geometry" />
        </mxCell>
        <mxCell id="YfRe9Kezcm8jlTOAHe0u-4" value="5V-24V" style="rounded=0;whiteSpace=wrap;html=1;" parent="1" vertex="1">
          <mxGeometry x="30" y="190" width="120" height="60" as="geometry" />
        </mxCell>
        <mxCell id="YfRe9Kezcm8jlTOAHe0u-5" value="MP1584EN-LF-Z" style="rounded=0;whiteSpace=wrap;html=1;" parent="1" vertex="1">
          <mxGeometry x="200" y="190" width="120" height="60" as="geometry" />
        </mxCell>
        <mxCell id="YfRe9Kezcm8jlTOAHe0u-6" value="LM1117" style="rounded=0;whiteSpace=wrap;html=1;" parent="1" vertex="1">
          <mxGeometry x="430" y="190" width="120" height="60" as="geometry" />
        </mxCell>
        <mxCell id="YfRe9Kezcm8jlTOAHe0u-9" value="" style="endArrow=classic;html=1;rounded=0;exitX=1;exitY=0.5;exitDx=0;exitDy=0;entryX=0;entryY=0.5;entryDx=0;entryDy=0;" parent="1" source="YfRe9Kezcm8jlTOAHe0u-4" target="YfRe9Kezcm8jlTOAHe0u-5" edge="1">
          <mxGeometry width="50" height="50" relative="1" as="geometry">
            <mxPoint x="330" y="370" as="sourcePoint" />
            <mxPoint x="380" y="320" as="targetPoint" />
          </mxGeometry>
        </mxCell>
        <mxCell id="YfRe9Kezcm8jlTOAHe0u-10" value="" style="endArrow=classic;html=1;rounded=0;exitX=1;exitY=0.5;exitDx=0;exitDy=0;entryX=0;entryY=0.5;entryDx=0;entryDy=0;" parent="1" source="YfRe9Kezcm8jlTOAHe0u-5" target="YfRe9Kezcm8jlTOAHe0u-6" edge="1">
          <mxGeometry width="50" height="50" relative="1" as="geometry">
            <mxPoint x="330" y="370" as="sourcePoint" />
            <mxPoint x="380" y="320" as="targetPoint" />
          </mxGeometry>
        </mxCell>
        <mxCell id="YfRe9Kezcm8jlTOAHe0u-17" value="5V&lt;br&gt;3A" style="edgeLabel;html=1;align=center;verticalAlign=middle;resizable=0;points=[];" parent="YfRe9Kezcm8jlTOAHe0u-10" vertex="1" connectable="0">
          <mxGeometry x="-0.8584" y="2" relative="1" as="geometry">
            <mxPoint x="12" y="2" as="offset" />
          </mxGeometry>
        </mxCell>
        <mxCell id="YfRe9Kezcm8jlTOAHe0u-18" value="5V&lt;br&gt;600mA" style="edgeLabel;html=1;align=center;verticalAlign=middle;resizable=0;points=[];" parent="YfRe9Kezcm8jlTOAHe0u-10" vertex="1" connectable="0">
          <mxGeometry x="0.5797" relative="1" as="geometry">
            <mxPoint as="offset" />
          </mxGeometry>
        </mxCell>
        <mxCell id="YfRe9Kezcm8jlTOAHe0u-11" value="" style="endArrow=classic;html=1;rounded=0;exitX=1;exitY=0.5;exitDx=0;exitDy=0;entryX=0;entryY=0.5;entryDx=0;entryDy=0;" parent="1" source="YfRe9Kezcm8jlTOAHe0u-6" target="YfRe9Kezcm8jlTOAHe0u-1" edge="1">
          <mxGeometry width="50" height="50" relative="1" as="geometry">
            <mxPoint x="330" y="370" as="sourcePoint" />
            <mxPoint x="380" y="320" as="targetPoint" />
          </mxGeometry>
        </mxCell>
        <mxCell id="YfRe9Kezcm8jlTOAHe0u-19" value="3.3V" style="edgeLabel;html=1;align=center;verticalAlign=middle;resizable=0;points=[];" parent="YfRe9Kezcm8jlTOAHe0u-11" vertex="1" connectable="0">
          <mxGeometry x="-0.2718" relative="1" as="geometry">
            <mxPoint x="-27" as="offset" />
          </mxGeometry>
        </mxCell>
        <mxCell id="YfRe9Kezcm8jlTOAHe0u-20" value="600mA" style="edgeLabel;html=1;align=center;verticalAlign=middle;resizable=0;points=[];" parent="YfRe9Kezcm8jlTOAHe0u-11" vertex="1" connectable="0">
          <mxGeometry x="0.6555" y="-1" relative="1" as="geometry">
            <mxPoint x="-13" as="offset" />
          </mxGeometry>
        </mxCell>
        <mxCell id="YfRe9Kezcm8jlTOAHe0u-12" value="" style="endArrow=none;html=1;rounded=0;" parent="1" edge="1">
          <mxGeometry width="50" height="50" relative="1" as="geometry">
            <mxPoint x="360" y="810" as="sourcePoint" />
            <mxPoint x="360" y="220" as="targetPoint" />
          </mxGeometry>
        </mxCell>
        <mxCell id="YfRe9Kezcm8jlTOAHe0u-13" value="" style="endArrow=classic;html=1;rounded=0;entryX=0;entryY=0.5;entryDx=0;entryDy=0;" parent="1" target="YfRe9Kezcm8jlTOAHe0u-2" edge="1">
          <mxGeometry width="50" height="50" relative="1" as="geometry">
            <mxPoint x="360" y="360" as="sourcePoint" />
            <mxPoint x="380" y="320" as="targetPoint" />
          </mxGeometry>
        </mxCell>
        <mxCell id="YfRe9Kezcm8jlTOAHe0u-15" value="1mA" style="edgeLabel;html=1;align=center;verticalAlign=middle;resizable=0;points=[];" parent="YfRe9Kezcm8jlTOAHe0u-13" vertex="1" connectable="0">
          <mxGeometry x="0.1712" relative="1" as="geometry">
            <mxPoint as="offset" />
          </mxGeometry>
        </mxCell>
        <mxCell id="YfRe9Kezcm8jlTOAHe0u-14" value="" style="endArrow=classic;html=1;rounded=0;entryX=0;entryY=0.5;entryDx=0;entryDy=0;" parent="1" target="YfRe9Kezcm8jlTOAHe0u-3" edge="1">
          <mxGeometry width="50" height="50" relative="1" as="geometry">
            <mxPoint x="360" y="480" as="sourcePoint" />
            <mxPoint x="380" y="320" as="targetPoint" />
          </mxGeometry>
        </mxCell>
        <mxCell id="YfRe9Kezcm8jlTOAHe0u-16" value="300uA" style="edgeLabel;html=1;align=center;verticalAlign=middle;resizable=0;points=[];" parent="YfRe9Kezcm8jlTOAHe0u-14" vertex="1" connectable="0">
          <mxGeometry x="0.2979" y="-1" relative="1" as="geometry">
            <mxPoint x="-5" y="-1" as="offset" />
          </mxGeometry>
        </mxCell>
        <mxCell id="YfRe9Kezcm8jlTOAHe0u-21" value="TFT ILI9341" style="rounded=0;whiteSpace=wrap;html=1;" parent="1" vertex="1">
          <mxGeometry x="430" y="560" width="120" height="60" as="geometry" />
        </mxCell>
        <mxCell id="YfRe9Kezcm8jlTOAHe0u-22" value="" style="endArrow=classic;html=1;rounded=0;entryX=0;entryY=0.5;entryDx=0;entryDy=0;" parent="1" edge="1">
          <mxGeometry width="50" height="50" relative="1" as="geometry">
            <mxPoint x="360" y="600" as="sourcePoint" />
            <mxPoint x="430" y="600" as="targetPoint" />
          </mxGeometry>
        </mxCell>
        <mxCell id="YfRe9Kezcm8jlTOAHe0u-23" value="150mA" style="edgeLabel;html=1;align=center;verticalAlign=middle;resizable=0;points=[];" parent="YfRe9Kezcm8jlTOAHe0u-22" vertex="1" connectable="0">
          <mxGeometry x="0.2979" y="-1" relative="1" as="geometry">
            <mxPoint x="-5" y="-1" as="offset" />
          </mxGeometry>
        </mxCell>
        <mxCell id="YfRe9Kezcm8jlTOAHe0u-24" value="CH340" style="rounded=0;whiteSpace=wrap;html=1;" parent="1" vertex="1">
          <mxGeometry x="430" y="780" width="120" height="60" as="geometry" />
        </mxCell>
        <mxCell id="YfRe9Kezcm8jlTOAHe0u-27" value="" style="endArrow=classic;html=1;rounded=0;entryX=0;entryY=0.5;entryDx=0;entryDy=0;" parent="1" target="YfRe9Kezcm8jlTOAHe0u-24" edge="1">
          <mxGeometry width="50" height="50" relative="1" as="geometry">
            <mxPoint x="360" y="810" as="sourcePoint" />
            <mxPoint x="460" y="680" as="targetPoint" />
          </mxGeometry>
        </mxCell>
        <mxCell id="YfRe9Kezcm8jlTOAHe0u-28" value="30mA" style="edgeLabel;html=1;align=center;verticalAlign=middle;resizable=0;points=[];" parent="YfRe9Kezcm8jlTOAHe0u-27" vertex="1" connectable="0">
          <mxGeometry x="0.1712" relative="1" as="geometry">
            <mxPoint x="-7" as="offset" />
          </mxGeometry>
        </mxCell>
        <mxCell id="YfRe9Kezcm8jlTOAHe0u-31" value="EEPROM&lt;br&gt;CAT24C32Wi-GT3" style="rounded=0;whiteSpace=wrap;html=1;" parent="1" vertex="1">
          <mxGeometry x="430" y="680" width="120" height="60" as="geometry" />
        </mxCell>
        <mxCell id="YfRe9Kezcm8jlTOAHe0u-34" value="" style="endArrow=classic;html=1;rounded=0;entryX=0;entryY=0.5;entryDx=0;entryDy=0;" parent="1" target="YfRe9Kezcm8jlTOAHe0u-31" edge="1">
          <mxGeometry width="50" height="50" relative="1" as="geometry">
            <mxPoint x="362" y="709.5" as="sourcePoint" />
            <mxPoint x="425" y="709.9200000000001" as="targetPoint" />
          </mxGeometry>
        </mxCell>
        <mxCell id="YfRe9Kezcm8jlTOAHe0u-35" value="2mA" style="edgeLabel;html=1;align=center;verticalAlign=middle;resizable=0;points=[];" parent="YfRe9Kezcm8jlTOAHe0u-34" vertex="1" connectable="0">
          <mxGeometry x="0.1712" relative="1" as="geometry">
            <mxPoint x="-9" as="offset" />
          </mxGeometry>
        </mxCell>
      </root>
    </mxGraphModel>
  </diagram>
</mxfile>
